# xmcd
#
# Track frame offsets: 
#        150
#        17658
#        37651
#        58465
#        74591
#        90538
#        102751
#        124895
#        143783
#        162701
#        181342
#        202480
#        218445
#        240371
#        254929
#        274035
#
# Disc length: 3864 seconds
#
# Revision: 0
# Processed by: cddbd v1.4PL0 Copyright (c) Steve Scherf et al.
# Submitted via: ExactAudioCopy v0.90b4
#
DISCID=f30f1610
DTITLE=Various Artist - Beautiful Panpipe Melodies CD2
DYEAR=1998
DGENRE=Easy Listening
TTITLE0=After The Love Has Gone
TTITLE1=Someday
TTITLE2=Don T Wanna Lose You
TTITLE3=Close To You
TTITLE4=Tears In Heaven
TTITLE5=Ben
TTITLE6=The Greatest Love Of All
TTITLE7=Desperado
TTITLE8=Careless Whisper
TTITLE9=Holding Back The Years
TTITLE10=Kiss From A Rose
TTITLE11=The Lady In My Life
TTITLE12=One Day In Your Life
TTITLE13=Reunited
TTITLE14=Sometimes Love Just Ain T Enough
TTITLE15=Three Times A Lady
EXTD=
EXTT0=
EXTT1=
EXTT2=
EXTT3=
EXTT4=
EXTT5=
EXTT6=
EXTT7=
EXTT8=
EXTT9=
EXTT10=
EXTT11=
EXTT12=
EXTT13=
EXTT14=
EXTT15=
PLAYORDER=
